<svg width="20" height="21" viewBox="0 0 20 21" fill="none" xmlns="http://www.w3.org/2000/svg">
<path d="M9.20829 13.2048L7.66663 14.7464C7.34163 15.0714 6.82496 15.0714 6.49163 14.7548C6.39996 14.6631 6.30829 14.5798 6.21663 14.4881C5.35829 13.6214 4.58329 12.7131 3.89163 11.7631C3.20829 10.8131 2.65829 9.86309 2.25829 8.92142C1.86663 7.97142 1.66663 7.06309 1.66663 6.19642C1.66663 5.62975 1.76663 5.08809 1.96663 4.58809C2.16663 4.07975 2.48329 3.61309 2.92496 3.19642C3.45829 2.67142 4.04163 2.41309 4.65829 2.41309C4.89163 2.41309 5.12496 2.46309 5.33329 2.56309C5.54996 2.66309 5.74163 2.81309 5.89163 3.02975L7.82496 5.75475C7.97496 5.96309 8.08329 6.15475 8.15829 6.33809C8.23329 6.51309 8.27496 6.68809 8.27496 6.84642C8.27496 7.04642 8.21663 7.24642 8.09996 7.43809C7.99163 7.62975 7.83329 7.82975 7.63329 8.02975L6.99996 8.68809C6.90829 8.77975 6.86663 8.88809 6.86663 9.02142C6.86663 9.08809 6.87496 9.14642 6.89163 9.21309C6.91663 9.27975 6.94163 9.32975 6.95829 9.37975C7.10829 9.65475 7.36663 10.0131 7.73329 10.4464C8.10829 10.8798 8.50829 11.3214 8.94163 11.7631C9.02496 11.8464 9.11663 11.9298 9.19996 12.0131C9.53329 12.3381 9.54163 12.8714 9.20829 13.2048Z" fill="currentColor"/>
<path d="M18.3083 16.0213C18.3083 16.2546 18.2667 16.4963 18.1833 16.7296C18.1583 16.7963 18.1333 16.863 18.1 16.9296C17.9583 17.2296 17.775 17.513 17.5333 17.7796C17.125 18.2296 16.675 18.5546 16.1667 18.763C16.1583 18.763 16.15 18.7713 16.1417 18.7713C15.65 18.9713 15.1167 19.0796 14.5417 19.0796C13.6917 19.0796 12.7833 18.8796 11.825 18.4713C10.8667 18.063 9.90833 17.513 8.95833 16.8213C8.63333 16.5796 8.30833 16.338 8 16.0796L10.725 13.3546C10.9583 13.5296 11.1667 13.663 11.3417 13.7546C11.3833 13.7713 11.4333 13.7963 11.4917 13.8213C11.5583 13.8463 11.625 13.8546 11.7 13.8546C11.8417 13.8546 11.95 13.8046 12.0417 13.713L12.675 13.088C12.8833 12.8796 13.0833 12.7213 13.275 12.6213C13.4667 12.5046 13.6583 12.4463 13.8667 12.4463C14.025 12.4463 14.1917 12.4796 14.375 12.5546C14.5583 12.6296 14.75 12.738 14.9583 12.8796L17.7167 14.838C17.9333 14.988 18.0833 15.163 18.175 15.3713C18.2583 15.5796 18.3083 15.788 18.3083 16.0213Z" fill="currentColor"/>
</svg>
