<svg width="48" height="34" viewBox="0 0 48 34" fill="none" xmlns="http://www.w3.org/2000/svg">
<path d="M7.734 28.67H3.25V18.67H5.75V25.92V26.17H6H7.734H7.92741L7.97599 25.9828C8.61775 23.5093 10.8412 21.67 13.5 21.67C16.1588 21.67 18.3823 23.5093 19.024 25.9828L19.0726 26.17H19.266H28.5H28.75V25.92V3.41998V3.16998H28.5H0.25V0.669983H31.25V6.41998V6.66998H31.5H44.3968L44.6671 7.52579L44.6683 7.52954L47.6683 16.5295L47.6707 16.5366L47.6735 16.5436L47.75 16.7343V28.67H43.266H43.0726L43.024 28.8572C42.3823 31.3307 40.1588 33.17 37.5 33.17C34.8412 33.17 32.6177 31.3307 31.976 28.8572L31.9274 28.67H31.734H19.266H19.0726L19.024 28.8572C18.3823 31.3307 16.1588 33.17 13.5 33.17C10.8412 33.17 8.61775 31.3307 7.97599 28.8572L7.92741 28.67H7.734ZM31.5 9.16998H31.25V9.41998V25.92V26.17H31.5H31.734H31.9274L31.976 25.9828C32.6177 23.5093 34.8412 21.67 37.5 21.67C40.1588 21.67 42.3823 23.5093 43.024 25.9828L43.0726 26.17H43.266H45H45.25V25.92V17.1075V17.0667L45.237 17.028L42.6585 9.34048L42.6013 9.16998H42.4215H31.5ZM14.75 9.16998H1.75V6.66998H14.75V9.16998ZM11.75 15.17H3.25V12.67H11.75V15.17ZM16.75 27.42C16.75 25.6064 15.3136 24.17 13.5 24.17C11.6864 24.17 10.25 25.6064 10.25 27.42C10.25 29.2336 11.6864 30.67 13.5 30.67C15.3136 30.67 16.75 29.2336 16.75 27.42ZM40.75 27.42C40.75 25.6064 39.3136 24.17 37.5 24.17C35.6864 24.17 34.25 25.6064 34.25 27.42C34.25 29.2336 35.6864 30.67 37.5 30.67C39.3136 30.67 40.75 29.2336 40.75 27.42Z" fill="currentColor" stroke="white" stroke-width="0.5"/>
</svg>
