<svg width="20" height="21" viewBox="0 0 20 21" fill="none" xmlns="http://www.w3.org/2000/svg">
<path d="M5.99951 20.9983C5.44951 20.9983 4.97884 20.8025 4.58751 20.4108C4.19551 20.0184 3.99951 19.547 3.99951 18.9966C3.99951 18.4461 4.19551 17.9747 4.58751 17.5824C4.97884 17.1907 5.44951 16.9949 5.99951 16.9949C6.54951 16.9949 7.02018 17.1907 7.41151 17.5824C7.80351 17.9747 7.99951 18.4461 7.99951 18.9966C7.99951 19.547 7.80351 20.0184 7.41151 20.4108C7.02018 20.8025 6.54951 20.9983 5.99951 20.9983ZM15.9995 20.9983C15.4495 20.9983 14.9788 20.8025 14.5875 20.4108C14.1955 20.0184 13.9995 19.547 13.9995 18.9966C13.9995 18.4461 14.1955 17.9747 14.5875 17.5824C14.9788 17.1907 15.4495 16.9949 15.9995 16.9949C16.5495 16.9949 17.0205 17.1907 17.4125 17.5824C17.8038 17.9747 17.9995 18.4461 17.9995 18.9966C17.9995 19.547 17.8038 20.0184 17.4125 20.4108C17.0205 20.8025 16.5495 20.9983 15.9995 20.9983ZM5.14951 4.98457L7.54951 9.98886H14.5495L17.2995 4.98457H5.14951ZM4.19951 2.98286H18.9495C19.3328 2.98286 19.6245 3.15367 19.8245 3.4953C20.0245 3.83759 20.0328 4.18389 19.8495 4.53419L16.2995 10.9397C16.1162 11.2733 15.8702 11.5318 15.5615 11.7153C15.2535 11.8988 14.9162 11.9906 14.5495 11.9906H7.09951L5.99951 13.9923H17.9995V15.994H5.99951C5.24951 15.994 4.68285 15.6644 4.29951 15.0052C3.91618 14.3466 3.89951 13.692 4.24951 13.0415L5.59951 10.5894L1.99951 2.98286H-0.000488281V0.981146H3.24951L4.19951 2.98286ZM7.54951 9.98886H14.5495H7.54951Z" fill="currentColor"/>
</svg>
