<svg width="18" height="19" viewBox="0 0 18 19" fill="none" xmlns="http://www.w3.org/2000/svg">
<path d="M14.1762 14.473C14.6755 14.473 15.1543 14.6713 15.5073 15.0243C15.8603 15.3773 16.0586 15.8561 16.0586 16.3553C16.0586 16.8546 15.8603 17.3334 15.5073 17.6864C15.1543 18.0394 14.6755 18.2377 14.1762 18.2377C13.677 18.2377 13.1982 18.0394 12.8452 17.6864C12.4922 17.3334 12.2939 16.8546 12.2939 16.3553C12.2939 15.8561 12.4922 15.3773 12.8452 15.0243C13.1982 14.6713 13.677 14.473 14.1762 14.473ZM14.1762 15.4142C13.9266 15.4142 13.6872 15.5133 13.5107 15.6898C13.3342 15.8663 13.2351 16.1057 13.2351 16.3553C13.2351 16.605 13.3342 16.8444 13.5107 17.0209C13.6872 17.1974 13.9266 17.2965 14.1762 17.2965C14.4259 17.2965 14.6652 17.1974 14.8418 17.0209C15.0183 16.8444 15.1174 16.605 15.1174 16.3553C15.1174 16.1057 15.0183 15.8663 14.8418 15.6898C14.6652 15.5133 14.4259 15.4142 14.1762 15.4142ZM5.70565 14.473C6.20488 14.473 6.68367 14.6713 7.03668 15.0243C7.38969 15.3773 7.58801 15.8561 7.58801 16.3553C7.58801 16.8546 7.38969 17.3334 7.03668 17.6864C6.68367 18.0394 6.20488 18.2377 5.70565 18.2377C5.20642 18.2377 4.72764 18.0394 4.37463 17.6864C4.02162 17.3334 3.8233 16.8546 3.8233 16.3553C3.8233 15.8561 4.02162 15.3773 4.37463 15.0243C4.72764 14.6713 5.20642 14.473 5.70565 14.473ZM5.70565 15.4142C5.45604 15.4142 5.21665 15.5133 5.04014 15.6898C4.86364 15.8663 4.76448 16.1057 4.76448 16.3553C4.76448 16.605 4.86364 16.8444 5.04014 17.0209C5.21665 17.1974 5.45604 17.2965 5.70565 17.2965C5.95527 17.2965 6.19466 17.1974 6.37116 17.0209C6.54767 16.8444 6.64683 16.605 6.64683 16.3553C6.64683 16.1057 6.54767 15.8663 6.37116 15.6898C6.19466 15.5133 5.95527 15.4142 5.70565 15.4142ZM16.0586 3.17888H3.13624L5.53624 8.82594H13.2351C13.5457 8.82594 13.8186 8.67535 13.988 8.44946L16.8115 4.68476C16.9339 4.52476 16.9998 4.32711 16.9998 4.12005C16.9998 3.87044 16.9006 3.63105 16.7241 3.45454C16.5476 3.27804 16.3082 3.17888 16.0586 3.17888ZM13.2351 9.76711H5.5833L4.85859 11.2353L4.76448 11.6495C4.76448 11.8991 4.86364 12.1385 5.04014 12.315C5.21665 12.4915 5.45604 12.5906 5.70565 12.5906H16.0586V13.5318H5.70565C5.20642 13.5318 4.72764 13.3335 4.37463 12.9805C4.02162 12.6275 3.8233 12.1487 3.8233 11.6495C3.82302 11.3301 3.90399 11.016 4.05859 10.7365L4.73624 9.35299L1.31977 1.29652H0.0585938V0.355347H1.94095L2.74095 2.2377H16.0586C16.5578 2.2377 17.0366 2.43602 17.3896 2.78903C17.7426 3.14204 17.9409 3.62082 17.9409 4.12005C17.9409 4.59064 17.7809 4.98594 17.5174 5.30594L14.7786 8.96711C14.4398 9.44711 13.8751 9.76711 13.2351 9.76711Z" fill="currentColor"/>
</svg>
