<svg width="16" height="16" viewBox="0 0 16 16" fill="none" xmlns="http://www.w3.org/2000/svg">
<path d="M7.9987 1.33301C4.32536 1.33301 1.33203 4.32634 1.33203 7.99967C1.33203 11.673 4.32536 14.6663 7.9987 14.6663C11.672 14.6663 14.6654 11.673 14.6654 7.99967C14.6654 4.32634 11.672 1.33301 7.9987 1.33301ZM10.2387 9.53301C10.432 9.72634 10.432 10.0463 10.2387 10.2397C10.1387 10.3397 10.012 10.3863 9.88536 10.3863C9.7587 10.3863 9.63203 10.3397 9.53203 10.2397L7.9987 8.70634L6.46536 10.2397C6.36536 10.3397 6.2387 10.3863 6.11203 10.3863C5.98536 10.3863 5.8587 10.3397 5.7587 10.2397C5.56536 10.0463 5.56536 9.72634 5.7587 9.53301L7.29203 7.99967L5.7587 6.46634C5.56536 6.27301 5.56536 5.95301 5.7587 5.75968C5.95203 5.56634 6.27203 5.56634 6.46536 5.75968L7.9987 7.29301L9.53203 5.75968C9.72536 5.56634 10.0454 5.56634 10.2387 5.75968C10.432 5.95301 10.432 6.27301 10.2387 6.46634L8.70537 7.99967L10.2387 9.53301Z" fill="currentColor" stroke="none"/>
</svg>
