<svg width="20" height="20" viewBox="0 0 20 20" fill="none" xmlns="http://www.w3.org/2000/svg">
<path d="M17.7083 7.62604C15.7833 4.60104 12.9666 2.85938 9.99996 2.85938C8.51663 2.85938 7.07496 3.29271 5.75829 4.10104C4.44163 4.91771 3.25829 6.10937 2.29163 7.62604C1.45829 8.93437 1.45829 11.0594 2.29163 12.3677C4.21663 15.401 7.03329 17.1344 9.99996 17.1344C11.4833 17.1344 12.925 16.701 14.2416 15.8927C15.5583 15.076 16.7416 13.8844 17.7083 12.3677C18.5416 11.0677 18.5416 8.93437 17.7083 7.62604ZM9.99996 13.3677C8.13329 13.3677 6.63329 11.8594 6.63329 10.001C6.63329 8.14271 8.13329 6.63437 9.99996 6.63437C11.8666 6.63437 13.3666 8.14271 13.3666 10.001C13.3666 11.8594 11.8666 13.3677 9.99996 13.3677Z" fill="currentColor"/>
<path d="M10 7.61719C8.69167 7.61719 7.625 8.68385 7.625 10.0005C7.625 11.3089 8.69167 12.3755 10 12.3755C11.3083 12.3755 12.3833 11.3089 12.3833 10.0005C12.3833 8.69219 11.3083 7.61719 10 7.61719Z" fill="currentColor"/>
</svg>
