<svg width="16" height="17" viewBox="0 0 16 17" fill="none" xmlns="http://www.w3.org/2000/svg">
<path d="M3.59896 1.90002H12.399C13.1323 1.90002 13.7323 2.50002 13.7323 3.23336V4.70002C13.7323 5.23336 13.399 5.90002 13.0656 6.23336L10.199 8.76669C9.79896 9.10002 9.53229 9.76669 9.53229 10.3V13.1667C9.53229 13.5667 9.26563 14.1 8.93229 14.3L7.99896 14.9C7.13229 15.4334 5.93229 14.8334 5.93229 13.7667V10.2334C5.93229 9.76669 5.66563 9.16669 5.39896 8.83336L2.86563 6.16669C2.53229 5.83336 2.26562 5.23336 2.26562 4.83336V3.30002C2.26562 2.50002 2.86563 1.90002 3.59896 1.90002Z" stroke="#252B37" stroke-width="1.5" stroke-miterlimit="10" stroke-linecap="round" stroke-linejoin="round"/>
<path d="M7.28667 1.90002L4 7.16669" stroke="#252B37" stroke-width="1.5" stroke-miterlimit="10" stroke-linecap="round" stroke-linejoin="round"/>
</svg>
