<svg width="44" height="32" viewBox="0 0 44 32" fill="none" xmlns="http://www.w3.org/2000/svg">
<path d="M41.1071 16.1343V15.8843H40.8571H17.9363H17.3324L17.7596 16.3111L21.3644 19.9128C21.6126 20.1609 21.752 20.4976 21.752 20.8486C21.752 21.1995 21.6126 21.5362 21.3644 21.7843C21.1162 22.0325 20.7796 22.172 20.4286 22.172C20.0776 22.172 19.741 22.0325 19.4928 21.7843L15.8911 18.1796L15.4643 17.7523V18.3563V28.7057V28.9557H15.7143H37.7143C38.6141 28.9557 39.4771 28.5982 40.1134 27.962C40.7497 27.3257 41.1071 26.4627 41.1071 25.5628V16.1343ZM21.4972 12.9079L21.379 13.2414H21.7329H40.8571H41.1071V12.9914V6.7057C41.1071 5.80586 40.7497 4.94287 40.1134 4.30659C39.4771 3.6703 38.6141 3.31284 37.7143 3.31284H15.7143H15.4643V3.56284V6.97284V7.32672L15.7978 7.20847C16.5928 6.92664 17.4513 6.87577 18.274 7.06177C19.0967 7.24777 19.8499 7.66302 20.4463 8.25943C21.0427 8.85584 21.4579 9.609 21.6439 10.4317C21.8299 11.2544 21.7791 12.1129 21.4972 12.9079ZM15.4643 12.9914V13.2414H15.7143H17.2857C17.646 13.2414 17.9981 13.1346 18.2976 12.9344C18.5972 12.7343 18.8306 12.4498 18.9685 12.117C19.1064 11.7842 19.1424 11.418 19.0721 11.0646C19.0019 10.7113 18.8284 10.3868 18.5737 10.132C18.3189 9.87731 17.9944 9.70383 17.6411 9.63355C17.2877 9.56327 16.9215 9.59934 16.5887 9.7372C16.2559 9.87506 15.9714 10.1085 15.7713 10.4081C15.5711 10.7076 15.4643 11.0597 15.4643 11.42V12.9914ZM12.4879 7.20847L12.8214 7.32672V6.97284V3.56284V3.31284H12.5714H6.28571C5.38587 3.31284 4.52289 3.6703 3.8866 4.30659C3.25032 4.94287 2.89286 5.80586 2.89286 6.7057V12.9914V13.2414H3.14286H6.55286H6.90673L6.78849 12.9079C6.50665 12.1129 6.45579 11.2544 6.64179 10.4317C6.82779 9.609 7.24304 8.85584 7.83945 8.25943C8.43585 7.66302 9.18902 7.24777 10.0117 7.06177C10.8344 6.87577 11.6929 6.92664 12.4879 7.20847ZM12.5714 13.2414H12.8214V12.9914V11.42C12.8214 11.0597 12.7146 10.7076 12.5145 10.4081C12.3143 10.1085 12.0299 9.87506 11.697 9.7372C11.3642 9.59934 10.998 9.56327 10.6447 9.63355C10.2913 9.70383 9.96679 9.87731 9.71206 10.132C9.45732 10.3868 9.28385 10.7113 9.21357 11.0646C9.14329 11.418 9.17936 11.7842 9.31722 12.117C9.45508 12.4498 9.68853 12.7343 9.98807 12.9344C10.2876 13.1346 10.6398 13.2414 11 13.2414H12.5714ZM10.5261 16.3111L10.9534 15.8843H10.3494H3.14286H2.89286V16.1343V25.5628C2.89286 26.4627 3.25032 27.3257 3.8866 27.962C4.52289 28.5982 5.38587 28.9557 6.28571 28.9557H12.5714H12.8214V28.7057V18.3563V17.7523L12.3946 18.1796L8.79294 21.7844C8.79291 21.7844 8.79288 21.7844 8.79286 21.7844C8.66998 21.9073 8.52413 22.0047 8.36359 22.0712C8.20303 22.1377 8.03094 22.172 7.85714 22.172C7.68335 22.172 7.51126 22.1377 7.35069 22.0712C7.19013 22.0047 7.04424 21.9072 6.92135 21.7844L6.74457 21.9611L6.92135 21.7843C6.79846 21.6615 6.70098 21.5156 6.63447 21.355C6.56796 21.1944 6.53373 21.0224 6.53373 20.8486C6.53373 20.6748 6.56796 20.5027 6.63447 20.3421C6.70098 20.1815 6.79846 20.0357 6.92135 19.9128L10.5261 16.3111ZM0.25 6.7057C0.25 5.10493 0.885904 3.56972 2.01782 2.4378C3.14974 1.30589 4.68494 0.669983 6.28571 0.669983H37.7143C39.3151 0.669983 40.8503 1.30589 41.9822 2.4378C43.1141 3.56972 43.75 5.10493 43.75 6.7057V25.5628C43.75 27.1636 43.1141 28.6988 41.9822 29.8307C40.8503 30.9627 39.3151 31.5986 37.7143 31.5986H6.28571C4.68494 31.5986 3.14974 30.9627 2.01782 29.8307C0.885904 28.6988 0.25 27.1636 0.25 25.5628V6.7057Z" fill="currentColor" stroke="white" stroke-width="0.5"/>
</svg>
