<svg width="20" height="20" viewBox="0 0 20 20" fill="none" xmlns="http://www.w3.org/2000/svg">
<path d="M13.5 7C14.0523 7 14.5 6.55228 14.5 6C14.5 5.44772 14.0523 5 13.5 5C12.9477 5 12.5 5.44772 12.5 6C12.5 6.55228 12.9477 7 13.5 7Z" fill="currentColor"/>
<path d="M12.75 3C14.82 3 16.5 4.68 16.5 6.75V12.75C16.5 14.82 14.82 16.5 12.75 16.5H6.75C4.68 16.5 3 14.82 3 12.75V6.75C3 4.68 4.68 3 6.75 3H9.75H12.75Z" stroke="currentColor" stroke-width="1.5" stroke-linecap="round" stroke-linejoin="round"/>
<path d="M9.74988 6.75C11.4074 6.75 12.7499 8.0925 12.7499 9.75C12.7499 11.4075 11.4074 12.75 9.74988 12.75C8.09238 12.75 6.74988 11.4075 6.74988 9.75C6.74988 8.0925 8.09238 6.75 9.74988 6.75Z" stroke="currentColor" stroke-width="1.5" stroke-linecap="round" stroke-linejoin="round"/>
</svg>
