<svg width="20" height="21" viewBox="0 0 20 21" fill="none" xmlns="http://www.w3.org/2000/svg">
<path d="M17.1833 7.78743C16.3083 3.93743 12.95 2.2041 9.99996 2.2041C9.99996 2.2041 9.99996 2.2041 9.99162 2.2041C7.04996 2.2041 3.68329 3.9291 2.80829 7.7791C1.83329 12.0791 4.46662 15.7208 6.84996 18.0124C7.73329 18.8624 8.86662 19.2874 9.99996 19.2874C11.1333 19.2874 12.2666 18.8624 13.1416 18.0124C15.525 15.7208 18.1583 12.0874 17.1833 7.78743ZM9.99996 11.9624C8.54996 11.9624 7.37496 10.7874 7.37496 9.33743C7.37496 7.88743 8.54996 6.71243 9.99996 6.71243C11.45 6.71243 12.625 7.88743 12.625 9.33743C12.625 10.7874 11.45 11.9624 9.99996 11.9624Z" fill="currentColor"/>
</svg>
