<svg width="20" height="20" viewBox="0 0 20 20" fill="none" xmlns="http://www.w3.org/2000/svg">
<path d="M4.16667 12.2918C2.9 12.2918 1.875 11.2668 1.875 10.0002C1.875 8.7335 2.9 7.7085 4.16667 7.7085C5.43333 7.7085 6.45833 8.7335 6.45833 10.0002C6.45833 11.2668 5.43333 12.2918 4.16667 12.2918ZM4.16667 8.9585C3.59167 8.9585 3.125 9.42516 3.125 10.0002C3.125 10.5752 3.59167 11.0418 4.16667 11.0418C4.74167 11.0418 5.20833 10.5752 5.20833 10.0002C5.20833 9.42516 4.74167 8.9585 4.16667 8.9585Z" fill="#535862"/>
<path d="M15.8327 12.2918C14.566 12.2918 13.541 11.2668 13.541 10.0002C13.541 8.7335 14.566 7.7085 15.8327 7.7085C17.0993 7.7085 18.1243 8.7335 18.1243 10.0002C18.1243 11.2668 17.0993 12.2918 15.8327 12.2918ZM15.8327 8.9585C15.2577 8.9585 14.791 9.42516 14.791 10.0002C14.791 10.5752 15.2577 11.0418 15.8327 11.0418C16.4077 11.0418 16.8743 10.5752 16.8743 10.0002C16.8743 9.42516 16.4077 8.9585 15.8327 8.9585Z" fill="#535862"/>
<path d="M10.0007 12.2918C8.73398 12.2918 7.70898 11.2668 7.70898 10.0002C7.70898 8.7335 8.73398 7.7085 10.0007 7.7085C11.2673 7.7085 12.2923 8.7335 12.2923 10.0002C12.2923 11.2668 11.2673 12.2918 10.0007 12.2918ZM10.0007 8.9585C9.42565 8.9585 8.95898 9.42516 8.95898 10.0002C8.95898 10.5752 9.42565 11.0418 10.0007 11.0418C10.5757 11.0418 11.0423 10.5752 11.0423 10.0002C11.0423 9.42516 10.5757 8.9585 10.0007 8.9585Z" fill="#535862"/>
</svg>
