<svg width="45" height="32" viewBox="0 0 45 32" fill="none" xmlns="http://www.w3.org/2000/svg">
<path d="M41.5236 10.0986H41.7736V9.84855V8.27713C41.7736 6.96052 41.2506 5.69783 40.3196 4.76685C39.3887 3.83586 38.126 3.31284 36.8094 3.31284H8.52365C7.20704 3.31284 5.94435 3.83586 5.01337 4.76685C4.08238 5.69783 3.55936 6.96052 3.55936 8.27713V9.84855V10.0986H3.80936H41.5236ZM3.80936 12.7414H3.55936V12.9914V23.9914C3.55936 25.308 4.08238 26.5707 5.01337 27.5017C5.94435 28.4327 7.20704 28.9557 8.52365 28.9557H36.8094C38.126 28.9557 39.3887 28.4327 40.3196 27.5017C41.2506 26.5707 41.7736 25.308 41.7736 23.9914V12.9914V12.7414H41.5236H3.80936ZM29.5893 23.057C29.8371 22.8092 30.1732 22.67 30.5236 22.67H36.8094C37.1598 22.67 37.4959 22.8092 37.7438 23.057C37.9916 23.3048 38.1308 23.6409 38.1308 23.9914C38.1308 24.3419 37.9916 24.678 37.7438 24.9258C37.4959 25.1736 37.1598 25.3128 36.8094 25.3128H30.5236C30.1732 25.3128 29.8371 25.1736 29.5893 24.9258C29.3414 24.678 29.2022 24.3419 29.2022 23.9914C29.2022 23.6409 29.3414 23.3048 29.5893 23.057ZM0.916504 8.27713C0.916504 6.25959 1.71797 4.32468 3.14458 2.89806C4.5712 1.47145 6.50611 0.669983 8.52365 0.669983H36.8094C38.8269 0.669983 40.7618 1.47145 42.1884 2.89806C43.615 4.32468 44.4165 6.25959 44.4165 8.27713V23.9914C44.4165 26.009 43.615 27.9439 42.1884 29.3705C40.7618 30.7971 38.8269 31.5986 36.8094 31.5986H8.52365C6.50611 31.5986 4.5712 30.7971 3.14458 29.3705C1.71797 27.9439 0.916504 26.009 0.916504 23.9914V8.27713Z" fill="currentColor" stroke="white" stroke-width="0.5"/>
</svg>
