<svg width="20" height="21" viewBox="0 0 20 21" fill="none" xmlns="http://www.w3.org/2000/svg">
<path d="M14.1666 3.66309H5.83329C3.33329 3.66309 1.66663 4.91309 1.66663 7.82975V13.6631C1.66663 16.5798 3.33329 17.8298 5.83329 17.8298H14.1666C16.6666 17.8298 18.3333 16.5798 18.3333 13.6631V7.82975C18.3333 4.91309 16.6666 3.66309 14.1666 3.66309ZM14.5583 8.73809L11.95 10.8214C11.4 11.2631 10.7 11.4798 9.99996 11.4798C9.29996 11.4798 8.59163 11.2631 8.04996 10.8214L5.44163 8.73809C5.17496 8.52142 5.13329 8.12142 5.34163 7.85475C5.55829 7.58809 5.94996 7.53809 6.21663 7.75475L8.82496 9.83809C9.45829 10.3464 10.5333 10.3464 11.1666 9.83809L13.775 7.75475C14.0416 7.53809 14.4416 7.57975 14.65 7.85475C14.8666 8.12142 14.825 8.52142 14.5583 8.73809Z" fill="currentColor"/>
</svg>
