<svg width="41" height="37" viewBox="0 0 41 37" fill="none" xmlns="http://www.w3.org/2000/svg">
<path d="M19.1574 35.5969L19.1566 35.5961C18.8417 35.2823 18.6835 34.8983 18.6835 34.42C18.6835 33.9417 18.8417 33.5577 19.1566 33.2439L19.1574 33.243C19.4712 32.9282 19.8552 32.77 20.3335 32.77H34.3335H34.6835V32.42V18.22C34.6835 16.2411 34.3079 14.3771 33.5549 12.6314C32.8046 10.8921 31.78 9.3715 30.481 8.07249C29.182 6.77349 27.6614 5.74887 25.9221 4.99861C24.1764 4.24556 22.3124 3.86998 20.3335 3.86998C18.3546 3.86998 16.4906 4.24556 14.7449 4.99861C13.0056 5.74887 11.485 6.77349 10.186 8.07249C8.887 9.3715 7.86238 10.8921 7.11212 12.6314C6.35907 14.3771 5.9835 16.2411 5.9835 18.22V28.42C5.9835 28.8987 5.82567 29.2828 5.51201 29.5965C5.19676 29.9117 4.81184 30.07 4.3335 30.07C3.32697 30.07 2.47447 29.716 1.75698 28.9985C1.03803 28.2795 0.683496 27.4263 0.683496 26.42V22.42C0.683496 21.7116 0.852055 21.1024 1.17981 20.5803C1.51709 20.0443 1.96108 19.6077 2.516 19.2686L2.67257 19.173L2.68294 18.9898L2.83228 16.3514C3.12808 13.9628 3.80713 11.81 4.86602 9.88893L4.86611 9.88877C5.92938 7.95733 7.2527 6.32472 8.8354 4.98732L8.83551 4.98723C10.4201 3.64715 12.2014 2.60886 14.1814 1.87205C16.1581 1.13733 18.2081 0.769983 20.3335 0.769983C22.4928 0.769983 24.5602 1.13756 26.5376 1.87208C28.5152 2.60846 30.2868 3.65392 31.8546 5.0088C33.422 6.36456 34.7385 7.99863 35.8036 9.91408C36.861 11.8193 37.5391 13.9472 37.8348 16.3019L37.9841 18.8901L37.9957 19.0924L38.177 19.183C38.7181 19.4536 39.1538 19.8504 39.4873 20.3804C39.8182 20.9077 39.9835 21.4849 39.9835 22.12V26.72C39.9835 27.3919 39.8165 27.9747 39.4896 28.4798C39.1567 28.9943 38.7207 29.3851 38.177 29.6569L37.9835 29.7537V29.97V32.42C37.9835 33.4264 37.6295 34.2796 36.912 34.9985C36.1931 35.716 35.3399 36.07 34.3335 36.07H20.3335C19.8552 36.07 19.4712 35.9118 19.1574 35.5969Z" fill="currentColor" stroke="white" stroke-width="0.7"/>
</svg>
