<svg width="20" height="20" viewBox="0 0 20 20" fill="none" xmlns="http://www.w3.org/2000/svg">
<path fill-rule="evenodd" clip-rule="evenodd" d="M9.99996 3.33301C10.7125 3.33301 11.4433 3.35134 12.1516 3.38134L12.9883 3.42134L13.7891 3.46884L14.5391 3.51967L15.2241 3.57301C15.9676 3.62958 16.6673 3.9467 17.1999 4.46851C17.7326 4.99032 18.064 5.68334 18.1358 6.42551L18.1691 6.77967L18.2316 7.53801C18.29 8.32384 18.3333 9.18051 18.3333 9.99967C18.3333 10.8188 18.29 11.6755 18.2316 12.4613L18.1691 13.2197L18.1358 13.5738C18.0639 14.3161 17.7324 15.0093 17.1996 15.5311C16.6668 16.0529 15.9669 16.3699 15.2233 16.4263L14.54 16.4788L13.79 16.5305L12.9883 16.578L12.1516 16.618C11.4348 16.6491 10.7174 16.6652 9.99996 16.6663C9.28248 16.6652 8.5651 16.6491 7.84829 16.618L7.01163 16.578L6.21079 16.5305L5.46079 16.4788L4.77579 16.4263C4.0323 16.3698 3.33263 16.0526 2.8 15.5308C2.26737 15.009 1.93595 14.316 1.86413 13.5738L1.83079 13.2197L1.76829 12.4613C1.70482 11.6423 1.67091 10.8212 1.66663 9.99967C1.66663 9.18051 1.70996 8.32384 1.76829 7.53801L1.83079 6.77967L1.86413 6.42551C1.93592 5.68347 2.26722 4.99055 2.79968 4.46876C3.33214 3.94697 4.03162 3.62977 4.77496 3.57301L5.45913 3.51967L6.20913 3.46884L7.01079 3.42134L7.84746 3.38134C8.56455 3.35028 9.2822 3.33417 9.99996 3.33301ZM8.33329 7.97884V12.0205C8.33329 12.4055 8.74996 12.6455 9.08329 12.4538L12.5833 10.433C12.6595 10.3892 12.7227 10.326 12.7667 10.25C12.8107 10.1739 12.8339 10.0876 12.8339 9.99967C12.8339 9.9118 12.8107 9.82547 12.7667 9.74939C12.7227 9.67332 12.6595 9.61018 12.5833 9.56634L9.08329 7.54634C9.00726 7.50244 8.92101 7.47934 8.83321 7.47935C8.74542 7.47937 8.65917 7.5025 8.58316 7.54642C8.50714 7.59034 8.44402 7.65351 8.40016 7.72956C8.3563 7.80562 8.33324 7.89188 8.33329 7.97967V7.97884Z" fill="currentColor"/>
</svg>
